<svg xmlns="http://www.w3.org/2000/svg" xml:space="preserve" width="325" height="325" overflow="hidden"><defs><clipPath id="a"><path d="M7371 4918h325v325h-325z"/></clipPath></defs><g fill-rule="evenodd" clip-path="url(#a)" transform="translate(-7371 -4918)"><path fill="#F9D600" d="M7502.65 4969.19s14.07 4 22.35-3.19c0 0-5.2 15.52-17.81 18 0 0-14.87-8.79-4.54-14.81Z"/><path d="M7524.74 4965.19c-7.86 7.3-21.41 3.32-21.52 3.28l-.22-.08-.18.12c-2.52 1.56-3.82 3.46-3.82 5.66-.04 5.43 7.97 10.53 8.29 10.72l.15.11.18-.04c12.5-2.64 17.8-19.06 17.84-19.25l.54-1.71-1.26 1.19Zm-.69 1.68c-1.51 3.87-6.67 14.89-16.43 17.05-.94-.6-7.68-5.21-7.68-9.75 0-1.79 1.12-3.36 3.24-4.7 1.41.41 12.91 3.35 20.87-2.6Z"/><path fill="#F9D600" d="M7553 4970s5.55 12.16 14.91 17l11.09-15.78s-21.74 1.61-26-1.22Z"/><path d="M7552.71 4969.58c.23.5 5.68 12.33 15.08 17.21l.37.21 11.84-16.96-1.01.07c-.23 0-21.5 1.58-25.56-1.14l-1.43-.97.71 1.58Zm1.43.68c5.3 1.9 19.96 1.15 23.94.86-.97 1.4-9.69 13.91-10.18 14.59-7.33-3.98-12.25-12.55-13.76-15.45Z"/><path fill="#F9D600" d="M7585 5007.36s9.46 9.9 8.45 11.64l21.55-21.29s-17.32-20.11-16.05-21.71l-13.95 31.36Z"/><path d="m7598 4976.14-14 31.17.22.21c4.98 5.16 8.8 10.18 8.32 10.95l.78.53 21.68-21.31-.26-.31c-7.87-9.09-15.89-19.27-15.89-20.82v-.03l.04-.07-.82-.46c-.07.04-.07.1-.07.14Zm.29 1.55c1.82 4 9.92 13.69 15.37 19.97-.55.56-19.04 18.71-20.38 20.01-.85-2.71-5.64-7.94-8.17-10.57.26-.49 12.22-27.2 13.18-29.41Z"/><path fill="#E7E9EC" d="M7628.64 4928.06c-3.63-1.38-98.2 23.45-98.2 23.45-7.22-4.85-99.68-19.32-99.68-19.32-5.77-2.08-.7 5.52-.7 5.52l63.54 97.29 74.39-3.47 62.83-95.23c3.6-6.86-2.18-8.24-2.18-8.24Zm-40.44 35.2s-23.84 50.37-29.62 53.8c0 0-39.73 7.61-52.73 2.76 0 0-29.62-53.8-27.43-55.18 0 0-2.15-5.52 2.18-4.14 0 0 63.54 20.69 102.57-2.76-.04 0 10.29-3.82 5.03 5.52Z"/><path d="M7530.02 4950.68c-8.41-4.97-95.94-18.87-99.68-19.47-1.45-.54-2.45-.5-3.01.14-1.22 1.43 1.26 5.36 1.78 6.15l63.72 98.5 74.94-3.5 62.97-96.36c.85-1.61 1.26-3.08 1.26-4.36 0-.75-.15-1.47-.44-2.11-.93-1.96-2.97-2.54-3.23-2.61-3.59-1.39-87.98 20.9-98.31 23.62Zm.07.96c37.82-10.04 95.13-24.61 97.95-23.72h.07s1.85.46 2.63 2.11c.26.5.37 1.07.37 1.71 0 1.11-.37 2.4-1.15 3.86 0 0-59.9 91.65-62.67 95.93-.52.04-73.31 3.43-73.87 3.47-.3-.46-63.42-98.04-63.42-98.04-1.07-1.61-2-3.61-2-4.57 0-.22.04-.36.15-.47.22-.25.96-.21 2 .18 1 .18 92.53 14.69 99.61 19.47l.19.11.14-.04Zm98.32-24.58-.08-.03c0 .03.08.03.08.03Z"/><path d="M7582.8 4956.82c-38.51 23.32-101.79 3-102.42 2.79-1.27-.39-2.19-.32-2.79.25-.44.43-.59 1.11-.59 1.75 0 1.21.48 2.53.56 2.75 0 4.43 14.72 32.31 27.52 55.77l.08.14.18.07c13.02 4.86 51.45-2.46 53.08-2.75 6.01-3.57 29.05-52.52 30.01-54.59v.04c1.71-3 2.01-5.04.97-6.14-1.67-1.86-6.12-.29-6.6-.08Zm.4.83c1.12-.4 4.46-1.29 5.49-.15.49.54.71 1.86-1.11 5.11v.03c-8.23 17.53-25 51.42-29.49 54.13-.22 0-39.32 7.46-52.23 2.79-10.79-19.78-27.45-51.56-27.45-54.92v-.14l.04-.14.03-.29c-.26-.68-.52-1.64-.52-2.46 0-.47.08-.86.34-1.11.37-.36 1.15-.21 1.74-.03.67.21 64.36 20.7 103.16-2.82Z"/><path fill="#E7E9EC" d="m7636.97 5233.16-63.23-98.16-74.03 3.5-62.52 96.09c-3.61 6.96 2.17 8.35 2.17 8.35 3.57 1.4 97.72-23.66 97.72-23.66 7.18 4.89 99.19 19.49 99.19 19.49 5.71 2.07.7-5.61.7-5.61Zm-50.34-22.95s-54.75-18.74-102.06 2.79c0 0-11.5 6.24-5.05-5.57 0 0 23.73-50.83 29.48-54.3 0 0 39.54-7.67 52.47-2.78 0 0 29.48 54.29 27.3 55.72.04-.04 2.18 5.53-2.14 4.14Z"/><path d="m7573.93 5134.04-74.67 3.5-62.99 96.33c-1.34 2.6-1.63 4.75-.82 6.42.96 2.08 3.19 2.61 3.26 2.65 3.59 1.39 88-20.9 98.29-23.65 8.41 5 95.93 18.86 99.67 19.47 1.44.53 2.44.5 3-.14 1.22-1.43-1.26-5.36-1.78-6.15l-63.74-98.47-.22.04Zm-.22.96c.29.46 63.4 98.01 63.4 98.01 1.07 1.61 1.96 3.57 1.96 4.57 0 .21-.03.39-.11.5-.22.25-.96.21-2-.18-1-.18-92.51-14.68-99.59-19.46l-.18-.15-.22.07c-37.82 10.04-95.11 24.61-97.93 23.72-.07-.04-1.88-.5-2.7-2.14-.22-.5-.37-1.07-.37-1.72 0-1.1.37-2.39 1.15-3.85 0 0 59.88-91.62 62.7-95.91.52-.03 73.33-3.42 73.89-3.46Z"/><path d="M7508.9 5152.43c-5.99 3.58-28.92 52.6-29.88 54.67-2.11 3.83-2.55 6.22-1.4 7.33 1.77 1.68 6.57-.86 7.12-1.14 46.69-21.21 101.35-2.94 101.9-2.76 1.26.4 2.18.32 2.77-.28.44-.43.59-1.11.59-1.76 0-1.21-.48-2.53-.55-2.75 0-4.4-14.67-32.35-27.41-55.84l-.07-.15-.19-.07c-12.96-4.9-51.26 2.43-52.88 2.75Zm-30.62 61.28c-.44-.42-.85-1.78 1.59-6.22 8.2-17.59 24.89-51.52 29.36-54.2.22 0 39.15-7.47 52-2.79 10.75 19.81 27.33 51.63 27.33 54.99v.14l-.04.15-.03.28c.25.65.51 1.65.51 2.47 0 .47-.07.86-.33 1.11-.37.36-1.14.21-1.73.03-.56-.17-55.59-18.55-102.64 2.79-1.85.97-5.02 2.18-6.02 1.25Z"/><path fill="#E7E9EC" d="m7479.41 5054.81-99.69-60.66c-7.22-3.5-8.66 2.11-8.66 2.11-1.45 3.47 24.55 94.84 24.55 94.84-5.07 6.97-20.22 96.23-20.22 96.23-2.18 5.58 5.78.68 5.78.68l101.83-61.34-3.59-71.86Zm-12.26 63.6s-56.32 28.6-57.77 26.49c0 0-5.77 2.11-4.33-2.07 0 0 17.67-44.9-2.89-99.03 0 0-6.48-11.15 5.78-4.86 0 0 52.73 23.02 56.32 28.6-.03-.03 7.93 38.32 2.89 50.87Z"/><path d="M7373.81 4993.44c-2.14.93-2.7 3.06-2.74 3.14-.03.1-.07.28-.07.49 0 7.73 21.81 84.35 24.59 93.96-5.15 8.08-19.55 92.17-20.18 95.77-.26.64-.37 1.21-.37 1.67 0 .53.18.96.52 1.21 1.48 1.17 5.55-1.21 6.37-1.71l102.07-61.21-3.63-72-99.89-60.53c-2.67-1.32-4.89-1.57-6.67-.79Zm2.38 195.49c-.26-.21-.19-.92.18-1.92.19-.96 15.22-88.9 20.19-95.7l.11-.18-.08-.21c-10.37-36.34-25.52-91.39-24.59-94.1.04-.07.52-1.85 2.22-2.59 1.48-.64 3.41-.4 5.78.74 0 0 95 57.55 99.41 60.26.03.49 3.55 70.43 3.59 70.96-.48.28-101.63 60.93-101.63 60.93-1.96 1.28-4.56 2.31-5.18 1.81Z"/><path d="M7400.59 5037.59c-1.73 1.72.88 6.35 1.18 6.88 20.08 53.07 3.02 97.87 2.83 98.3-.4 1.21-.33 2.1.26 2.67 1.29 1.18 4.31.15 4.65 0 4.53 0 33.35-14.15 57.56-26.44l.14-.07.08-.15c5.01-12.51-2.54-49.43-2.84-51-3.68-5.77-54.17-27.9-56.34-28.83-3.91-2.03-6.42-2.46-7.52-1.36Zm4.94 107.21c-.37-.35-.22-1.1-.04-1.67.18-.43 17.36-45.52-2.88-99.01-1.03-1.82-2.28-4.92-1.36-5.85.44-.43 1.84-.82 6.41 1.53 18.13 7.92 53.11 24.03 55.87 28.34 0 .18 4.46 22.02 4.46 37.89 0 4.95-.44 9.33-1.59 12.29-20.74 10.55-54.39 26.98-56.82 26.38l-.15-.04-.29-.04c-1.03.36-2.95.75-3.61.18Z"/><path fill="#E7E9EC" d="M7670.39 5084.09s26-91.36 24.55-94.86c0 0-1.44-5.58-8.66-2.07l-99.69 60.67-3.59 71.84 101.83 61.35s7.96 4.9 5.78-.71c0 .03-15.18-89.21-20.22-96.22Zm-6.52-45.45c-24.55 37.65-2.89 99.05-2.89 99.05 1.45 4.18-4.33 2.1-4.33 2.1-1.44 2.11-57.76-26.49-57.76-26.49-5.08-12.55 2.88-50.92 2.88-50.92 3.6-5.57 56.33-28.6 56.33-28.6 12.29-6.29 5.77 4.86 5.77 4.86Z"/><path d="M7686.59 4987.19c-.03.04-99.96 60.54-99.96 60.54l-3.63 71.99 102.11 61.25c.78.5 4.85 2.88 6.37 1.71.37-.29.52-.68.52-1.21 0-.46-.15-1.07-.41-1.75-.59-3.52-15-87.61-20.15-95.69 2.75-9.61 24.56-86.13 24.56-93.99 0-.25 0-.43-.07-.53 0-.04-.6-2.14-2.71-3.06-1.74-.79-3.96-.54-6.63.74Zm.48.82c2.34-1.1 4.3-1.35 5.74-.71 1.71.75 2.19 2.53 2.23 2.53.96 2.77-14.19 57.83-24.56 94.16l-.07.22.15.17c4.92 6.77 20 94.7 20.14 95.59.41 1.07.49 1.78.19 2-.63.49-3.22-.54-5.26-1.78 0 0-96.63-57.94-101.63-60.93.04-.53 3.56-70.5 3.59-70.96.45-.29 99.48-60.29 99.48-60.29Z"/><path d="M7657.86 5032.97c-2.14.93-52.61 23.06-56.22 28.66-.4 1.71-7.96 38.67-2.91 51.15l.08.14.14.07c24.21 12.3 53.02 26.45 57.55 26.45.33.15 3.39 1.18 4.64 0 .59-.57.7-1.46.26-2.67-.22-.61-21.22-61.42 2.83-98.31v-.04c.3-.53 2.91-5.13 1.18-6.88-1.1-1.03-3.57-.6-7.55 1.43Zm-59.87 67.09c0-15.9 4.46-37.79 4.54-38.08 2.72-4.13 37.68-20.24 55.77-28.16 4.61-2.35 6.01-1.99 6.45-1.53.92.93-.33 4.03-1.33 5.78v-.04c-24.27 37.29-3.13 98.53-2.91 99.13.19.57.37 1.32-.03 1.68-.63.57-2.58.18-3.65-.18l-.15-.04-.29.11c-2.43.61-36.07-15.83-56.81-26.38-1.14-2.99-1.59-7.34-1.59-12.29Z"/><path fill="#FFE91B" d="M7427.77 5016s-32.35 29.26-7.18 87.78c0 0 20.85 36.23 31.62-6.97 0 .04 20.85-52.23-24.44-80.81Z"/><path d="M7427.92 5015.25c-.34.29-32.44 30.13-7.33 88.25.4.68 9.18 15.68 18.58 14.43 6-.79 10.74-8 14.11-21.46.18-.46 20.55-52.84-24.77-81.26l-.33-.21-.26.25Zm-6.48 87.82c-7-16.17-9.52-30.09-9.52-41.8 0-27.81 14.18-42.95 16.33-45.09 23.14 14.71 28.73 35.81 28.73 52.66 0 15.31-4.55 27.09-4.66 27.34-3.3 13.11-7.78 20.07-13.33 20.82-8.7 1.14-17.44-13.78-17.55-13.93Z"/><path fill="#F9D600" d="M7428 5016s4.29 91.28 10 101"/><path d="M7427 5016.04c.18 3.75 4.39 92.21 10.15 101.96l.85-.46c-5.65-9.54-9.97-100.61-10-101.54l-1 .04Z"/><path d="M7429.88 5063.11c-4.67-.65-18.07-12.44-18.22-12.55l-.66.65c.55.48 13.77 12.11 18.88 12.79.33-.03 16.23-2.84 24.12-15.56l-.84-.44c-7.64 12.34-23.14 15.08-23.28 15.11Z"/><path d="M7431.13 5076.07c-3.85 0-16.1-10.58-20.46-14.6l-.67.68c.67.61 16.1 14.85 21.28 14.85.33-.07 19.21-5.18 25.72-20.64l-.89-.36c-6.36 15.03-24.79 20.03-24.98 20.07Z"/><path d="M7431.86 5089.11c-6.14-.68-19-12.97-19.15-13.11l-.71.64c.56.5 13.24 12.68 19.86 13.36.89-.14 18.59-3.68 25.14-15.57l-.85-.43c-6.29 11.5-24.1 15.07-24.29 15.11ZM7433.46 5101.11c-6.22 0-17.64-10.46-17.75-10.56l-.71.62c.48.44 11.83 10.83 18.49 10.83.71-.07 16.34-1.47 21.51-11.62l-.89-.38c-4.91 9.7-20.51 11.11-20.65 11.11ZM7428.93 5049.05c-5.37.63-15.16-9.4-15.24-9.51l-.69.64c.4.42 10.19 10.49 16.08 9.78.65-.1 16.03-2.93 18.92-12.71l-.91-.25c-2.74 9.26-18.01 12.05-18.16 12.05ZM7427.49 5035.08c-2.79 0-8.03-4.87-9.78-6.74l-.71.64c.26.28 6.73 7.02 10.53 7.02.3 0 7.59-.11 13.47-8.47l-.82-.53c-5.62 7.94-12.61 8.08-12.69 8.08Z"/><path fill="#FFE91B" d="M7434.39 5082s-29 31.98 1.72 87.5c0 0 24.25 33.87 30.54-9.9 0 0 15.32-53.64-32.26-77.6Z"/><path d="M7433.72 5081.29c-.3.32-29.58 33.17 1.73 88.85.45.64 10.87 14.76 20.21 12.65 5.97-1.37 10.02-9.03 12-22.79.15-.5 15.27-54.75-33.34-78.82l-.33-.18-.27.29Zm2.55 88.35c-10.8-19.17-14.32-35.62-14.32-48.87 0-23.5 10.91-37.01 12.26-38.55 29.1 14.62 34.8 40.3 34.8 58.11 0 11.21-2.25 19.27-2.32 19.49-1.95 13.4-5.78 20.78-11.29 22.07-8.7 1.93-19.05-12.11-19.13-12.25Z"/><path fill="#F9D600" d="M7434 5082s14.04 90.84 21 100"/><path d="M7434 5082.11c.55 3.69 13.59 90.8 20.23 99.89l.77-.53c-6.5-8.92-19.94-98.58-20.05-99.47l-.95.11Z"/><path d="M7441.24 5129.06c-4.76-.21-19.5-11.29-19.65-11.4l-.59.75c.63.47 15.15 11.37 20.39 11.59.29-.07 16-4.53 22.61-18.6l-.89-.4c-6.42 13.64-21.69 18.03-21.87 18.06Z"/><path d="M7443.35 5141.06c-3.83.36-17.04-8.84-21.76-12.43l-.59.74c.7.54 17.45 13.11 22.58 12.62.29-.11 18.51-6.9 23.42-22.71l-.92-.28c-4.76 15.35-22.54 21.99-22.73 22.06Z"/><path d="M7445.73 5154.12c-6.09-.11-20-11.01-20.11-11.12l-.62.71c.59.45 14.31 11.22 20.88 11.29.88-.25 17.87-5.33 23.12-17.65l-.88-.35c-5.06 11.93-22.2 17.05-22.39 17.12Z"/><path fill="#F9D600" d="M7430 5157.49s12.39 10.13 18.75 9.48c0 0 15.36-2.93 19.25-13.97"/><path d="M7448.57 5167.04c-6.22.59-18.82-9.55-18.93-9.66l-.64.75c.52.44 13.01 10.51 19.68 9.84.71-.11 16.23-3.2 20.32-14.64l-.94-.33c-3.86 10.96-19.34 14-19.49 14.04ZM7439 5114.98c-5.33 1.18-16.26-8.03-16.37-8.14l-.63.72c.44.39 11.37 9.61 17.22 8.32.67-.18 15.85-4.48 17.78-14.7l-.96-.18c-1.78 9.64-16.89 13.94-17.04 13.98ZM7436.25 5101.99c-2.82.26-8.58-4.46-10.57-6.3l-.68.73c.3.27 7.49 6.95 11.32 6.56.3-.03 7.64-.88 12.68-10.52l-.86-.46c-4.78 9.14-11.82 9.99-11.89 9.99Z"/><path fill="#FFE91B" d="M7406 4982.22s.52 43.16 62.49 64.68c0 0 41.94 9.53 16.09-27.52-.03.03-25.96-50.42-78.58-37.16Z"/><path d="m7405.37 4982.18-.37.11v.35c0 .43 1.22 43.14 62.82 64.23.78.18 18.22 4 23.64-3.51 3.45-4.75 1.11-12.97-6.94-24.35-.23-.39-26.72-49.84-79.15-36.83Zm78.33 37.32c7.83 11.1 10.17 18.93 6.98 23.36-5.05 6.95-22.38 3.19-22.56 3.12-58.22-19.95-61.9-59.23-62.12-62.98 51.39-12.48 77.44 36.04 77.7 36.5Z"/><path fill="#F9D600" d="M7406 4983s73.59 58.55 85 61"/><path d="M7406 4982.71c2.99 2.39 73.43 58.83 84.78 61.29l.22-.93c-11.09-2.38-83.63-60.5-84.37-61.07l-.63.71Z"/><path d="M7447.57 4985.29c4.74 14.24-3.73 27.37-3.8 27.51-3.73 2.9-22.58 4.27-22.77 4.27l.08.93c.79-.07 19.34-1.4 23.44-4.59.19-.25 8.88-13.74 3.99-28.41l-.94.29Z"/><path d="M7456.13 4989.39c7.36 14.43-1.48 30.74-1.6 30.92-2.69 2.72-19.35 4.38-25.53 4.77l.08.92c.91-.07 22.69-1.52 26.25-5.16.15-.29 9.22-16.98 1.67-31.84l-.87.39Z"/><path d="M7469.71 5001.33c4.57 12.46-4.68 27.75-4.75 27.89-4.65 3.96-22.77 4.84-22.96 4.84l.04.94c.74-.04 18.65-.91 23.66-5.19.48-.77 9.7-15.91 4.94-28.81l-.93.33Z"/><path d="M7480.75 5013.36c4.52 10.29-4.98 22.4-5.05 22.51-4.26 4.41-20.55 5.2-20.7 5.2l.04.93c.68-.04 16.89-.79 21.41-5.52.45-.54 9.95-12.69 5.24-23.48l-.94.36ZM7435.17 4982.53c5.39 8.19-3.01 20.96-3.09 21.07-3.2 4.27-17.93 4.48-18.08 4.48v.92c.64 0 15.37-.21 18.91-4.91.38-.56 8.81-13.41 3.13-22.09l-.87.53ZM7423.26 4981.25c2.45 9.36-2.22 14.43-2.29 14.46-1.92 1.97-9.3 2.36-11.97 2.36v.93c.41 0 10.12.04 12.72-2.68.23-.21 5.12-5.43 2.52-15.32l-.98.25Z"/><path fill="#FFE91B" d="M7643.23 5017s32.35 29.26 7.18 87.78c0 0-20.85 36.23-31.62-6.97 0 .04-20.85-52.23 24.44-80.81Z"/><path d="M7642.47 5017.21c-45.28 28.41-24.95 80.8-24.73 81.3 3.37 13.39 8.11 20.6 14.11 21.42 9.4 1.25 18.18-13.74 18.55-14.39 25.14-58.13-7-87.97-7.3-88.29l-.29-.25-.34.21ZM7631.96 5119c-5.56-.75-10.04-7.71-13.3-20.74-.11-.28-4.7-12.06-4.7-27.37 0-16.85 5.59-37.94 28.74-52.64 2.14 2.14 16.32 17.24 16.32 45.04 0 11.7-2.51 25.66-9.51 41.86-.08.11-8.81 14.99-17.55 13.85Z"/><path fill="#F9D600" d="M7643 5017s-4.29 92.19-10 102"/><path d="m7632 5118.54.85.46c5.76-9.75 9.97-98.18 10.15-101.96l-.96-.04c-.07.93-4.43 91.96-10.04 101.54Z"/><path d="M7617 5049.47c7.9 13.52 23.8 16.49 23.98 16.53 5.25-.73 18.47-13.04 19.02-13.59l-.66-.69c-.15.11-13.55 12.65-18.36 13.34 0-.04-15.46-2.95-23.14-16.06l-.84.47Z"/><path d="M7614 5057.4c6.52 15.46 25.41 20.56 25.59 20.6 5.34 0 20.78-14.24 21.41-14.85l-.67-.68c-4.37 4.06-16.63 14.6-20.63 14.6-.07-.04-18.48-5.04-24.81-20.07l-.89.4Z"/><path d="M7614 5075.43c6.4 11.89 23.71 15.43 24.44 15.57 6.61-.71 19.05-12.86 19.56-13.36l-.69-.68c-.11.15-12.73 12.43-18.87 13.11-.04-.03-17.46-3.57-23.64-15.07l-.8.43ZM7616 5091.44c5.14 10.97 20.78 12.49 21.45 12.56 6.71 0 18.07-11.22 18.55-11.7l-.71-.71c-.11.11-11.54 11.41-17.8 11.41-.11 0-15.72-1.56-20.63-12l-.86.44ZM7622 5038.28c2.97 9.8 18.79 12.58 19.43 12.68 6.09.71 16.16-9.33 16.57-9.75l-.71-.64c-.12.11-10.19 10.15-15.71 9.48-.11-.04-15.82-2.82-18.64-12.05l-.94.28ZM7630 5029.5c5.63 8.39 12.62 8.5 12.91 8.5 3.64 0 9.8-6.77 10.09-7.05l-.68-.64c-1.71 1.88-6.7 6.77-9.38 6.77-.07 0-6.77-.11-12.12-8.08l-.82.5Z"/><path fill="#FFE91B" d="M7632.01 5080s30.65 31.88-2.2 87.44c0 0-25.87 33.93-32.37-9.75-.03-.04-16.08-53.58 34.57-77.69Z"/><path d="M7631.62 5079.11c-49.66 24.28-34.48 78.46-34.29 79 1.98 13.54 5.99 21.17 11.94 22.63 9.56 2.33 20.33-11.99 20.77-12.6 32.19-55.83 2.46-88.57 2.13-88.89l-.26-.25-.29.11Zm-22.13 100.7c-5.55-1.32-9.33-8.7-11.25-21.91-.07-.22-2.27-8.17-2.27-19.2 0-17.83 5.8-43.76 35.76-58.59 1.28 1.47 12.35 14.83 12.35 38.21 0 13.33-3.64 29.91-14.81 49.28-.12.11-10.88 14.4-19.78 12.21Z"/><path fill="#F9D600" d="M7632 5080s-14.85 90.85-22 100"/><path d="m7610 5179.43.76.57c6.86-9.11 20.63-96.17 21.24-99.86l-.94-.14c-.14.89-14.34 90.53-21.06 99.43Z"/><path d="M7601 5109.36c6.7 14.12 22.77 18.57 22.95 18.64 5.49-.22 20.43-11.25 21.05-11.69l-.59-.76c-.14.11-15.33 11.29-20.39 11.55 0-.04-15.66-4.38-22.18-18.1l-.84.36Z"/><path d="M7597 5117.25c5.08 15.91 24.06 22.66 24.24 22.74 5.49.5 23.02-12.19 23.76-12.73l-.59-.75c-.19.14-17.98 13.01-22.98 12.58-.08-.03-18.61-6.65-23.54-22.09l-.89.25Z"/><path d="M7595 5135.39c5.43 12.37 23.24 17.4 23.98 17.61 7.02-.07 21.39-10.95 22.02-11.41l-.59-.74c-.15.1-14.74 11.12-21.28 11.23-.04-.04-17.96-5.14-23.24-17.08l-.89.39ZM7596 5151.34c4.04 11.5 19.57 14.52 20.22 14.63 6.71.64 19.24-9.56 19.78-9.97l-.58-.78c-.11.11-12.78 10.38-19.09 9.78-.11-.04-15.64-3.02-19.46-14l-.87.34ZM7608 5099.13c1.94 9.58 17.56 13.59 18.22 13.76 6.01 1.18 17.3-7.52 17.78-7.89l-.62-.67c-.11.1-11.37 8.8-16.94 7.72-.15-.04-15.69-4.01-17.52-13.05l-.92.13ZM7617 5090.45c5 8.77 12.33 9.5 12.65 9.54 3.81.34 11.06-5.73 11.35-6.01l-.62-.7c-.07.07-7.21 6.08-10.65 5.8-.08 0-7.15-.74-11.9-9.08l-.83.45Z"/><path fill="#FFE91B" d="M7671 4984.2s-.52 42.48-62.49 63.72c0 0-41.93 9.38-16.1-27.12 0 0 25.93-49.7 78.59-36.6Z"/><path d="M7591.46 5020.68c-8.01 11.5-10.35 19.81-6.94 24.63 5.42 7.58 22.83 3.74 23.57 3.56 61.65-21.43 62.87-64.72 62.91-65.19v-.36l-.37-.11c-52.41-13.19-78.91 36.96-79.17 37.47Zm-6.12 24.09c-3.19-4.5-.86-12.44 6.94-23.63.3-.53 26.31-49.72 77.72-37.07-.22 3.82-3.9 43.62-62.17 63.9-.11.03-17.48 3.88-22.49-3.2Z"/><path fill="#F9D600" d="M7671 4984s-73.59 58.55-85 61"/><path d="m7586 5045.07.22.93c11.31-2.46 81.79-58.86 84.78-61.29l-.63-.71c-.74.57-73.25 58.65-84.37 61.07Z"/><path d="M7632.2 5015.3c4.04 3.3 21.96 4.63 22.73 4.7l.07-.93c-.18 0-18.4-1.37-22.1-4.38 0 0-8.15-13.13-3.57-27.4l-.91-.29c-4.69 14.71 3.71 28.16 3.78 28.3Z"/><path d="M7621.47 5022.59c3.52 3.88 24.58 5.34 25.46 5.41l.07-.94c-5.98-.4-22.08-2.11-24.76-5.02 0-.07-8.58-16.82-1.47-31.64l-.88-.4c-7.3 15.26 1.51 32.41 1.58 32.59Z"/><path d="M7611.02 5030.85c4.92 4.27 22.23 5.12 22.94 5.15l.04-.92c-.18 0-17.7-.84-22.3-4.79 0-.04-8.94-14.88-4.52-26.97l-.9-.32c-4.53 12.48 4.38 27.22 4.74 27.85ZM7600.29 5038.44c4.4 4.77 20.02 5.52 20.67 5.56l.04-.93c-.15 0-15.88-.79-19.98-5.24-.08-.07-9.23-12.18-4.87-22.47l-.88-.36c-4.57 10.79 4.62 22.91 5.02 23.44ZM7643.86 5005.91c3.4 4.87 17.53 5.09 18.14 5.09v-.95c-.15 0-14.24-.22-17.34-4.69-.08-.11-8.13-13.36-2.97-21.85l-.79-.51c-5.49 9 2.64 22.33 2.96 22.91ZM7655.06 4998.32c2.44 2.72 11.55 2.68 11.94 2.68v-.93c-2.51.04-9.47-.36-11.23-2.36-.04-.04-4.45-5.12-2.16-14.5l-.88-.21c-2.47 9.88 2.12 15.1 2.33 15.32Z"/><path fill="#FFE91B" d="m7558.72 4977.25-19.67-9.64-19.27 10.39 3.28-21.27-16.06-14.71 21.68-3.53 9.38-19.49 10.11 19.1 21.83 2.67-15.44 15.35Z"/><path d="M7538.09 4918.82s-9.14 18.85-9.36 19.31c-.48.07-22.73 3.65-22.73 3.65s16.47 14.87 16.84 15.23c-.07.46-3.44 21.99-3.44 21.99s19.73-10.51 20.17-10.76c.45.21 20.59 9.97 20.59 9.97s-4.26-21.38-4.34-21.84c.34-.36 16.18-15.84 16.18-15.84s-22.36-2.69-22.88-2.76c-.22-.43-10.62-19.77-10.62-19.77l-.41.82Zm-8.95 20.17.25-.04s8.41-17.3 9.18-18.88c.82 1.54 9.96 18.53 9.96 18.53s19.66 2.36 21.43 2.57c-1.25 1.25-15.14 14.84-15.14 14.84s3.74 18.77 4.08 20.49c-1.6-.79-19.29-9.33-19.29-9.33s-17.32 9.22-18.91 10.04c.25-1.71 3.22-20.63 3.22-20.63s-14.44-13.05-15.77-14.27c1.7-.25 20.99-3.32 20.99-3.32Z"/><path fill="#FFE91B" d="M7471.5 4984.45s-8.59-20.64 15.36-14.21c-.03 0 13.5 27.3-15.36 14.21Z"/><path d="M7471.27 4970.46c-4.53 4.66-.9 14.07-.75 14.5l.07.18.19.07c8.62 4.13 14.43 4.88 17.27 2.26 4.91-4.52-.97-17.34-1.23-17.87l-.08-.18-.22-.08c-7.38-2.11-12.52-1.72-15.25 1.12Zm-1.27 6.57c0-2.19.48-4.42 1.98-5.96 2.44-2.52 7.16-2.8 14.01-.9.45 1.01 3.04 6.96 3.04 11.74 0 1.97-.45 3.73-1.65 4.85-2.47 2.29-7.87 1.5-15.96-2.37-.19-.47-1.42-3.81-1.42-7.36Z"/><path fill="#FFE91B" d="M7487.18 4985.42s-9.44-20.41 11-18.26c0 0 19.7 7.07-3.43 19.7 0 .04-6.05.75-7.57-1.44Z"/><path d="M7486.69 4969.47c-3.96 5.48.25 15.24.43 15.67v.03l.04.04c1.57 2.38 7.07 1.73 7.68 1.66 7.78-4.43 11.46-8.65 11.14-12.64-.43-5.23-7.46-7.93-7.75-8.03-5.64-.69-9.46.43-11.54 3.27Zm-.75 6.05c0-1.98.4-3.96 1.5-5.47 1.83-2.52 5.4-3.53 10.58-2.95-.04 0 6.67 2.59 7.07 7.2.28 3.6-3.25 7.52-10.5 11.7-1.36.15-5.54.29-6.61-1.29-.11-.26-2.04-4.76-2.04-9.19Z"/><path fill="#FFE91B" d="M7474.12 4986.26s-9.12-2.06-9.12 5.47c0 0 .75 10.27 12.95 10.27-.04 0 18.2-17.09-3.83-15.74Z"/><path d="M7467.25 4986.35c-1.5 1.11-2.25 2.88-2.25 5.25 0 .14.94 11.4 13.41 11.4h.23l.15-.14c.37-.36 9.25-9.35 6.78-14.42-1.2-2.49-4.87-3.56-10.9-3.17-.42-.07-4.65-1.01-7.42 1.08Zm-1.28 5.18c0-2.02.64-3.53 1.88-4.46 2.47-1.84 6.59-.9 6.63-.9l.07.04h.08c5.62-.36 8.99.5 10 2.62.26.5.34 1.04.34 1.65 0 4.43-5.96 10.69-6.78 11.55-11.32-.14-12.18-10.07-12.22-10.5Z"/><path fill="#FFE91B" d="M7490 4989.52s1.81-11.52 12.58-11.52c0 0 13.5-.28 6.32 13.54 0 0-6.32 9.19-14.98 3.73 0 0-3.01-1.99-3.92-5.75Z"/><path d="M7502.65 4977c-11.56 0-13.61 12.43-13.65 12.58v.07l.04.07c.98 4.08 4.13 6.29 4.28 6.36 9.41 6 16.31-3.97 16.39-4.08 2.58-4.96 2.96-8.79 1.25-11.43-2.46-3.64-8.04-3.57-8.31-3.57Zm.04.99c.08 0 5.31-.07 7.4 3.17 1.52 2.35 1.1 5.84-1.25 10.44-.23.33-6.41 9.19-14.95 3.75 0 0-2.92-2.06-3.83-5.7.12-.96 2.13-11.66 12.63-11.66Z"/><path fill="#FFE91B" d="M7490.48 4990s-5.39-.34-4.68-3.9c0 0-2.9-.97-2.16-2.92 0 0-4.69-6.18 1.78-1.31 0 0 3.31.87 3.13 2.25 0-.03 6.25 2.96 1.93 5.88Z"/><path d="M7481.22 4979.2c-.07.07-.22.22-.22.55 0 .52.34 1.49 1.6 3.38-.03.19-.11.41-.11.56 0 1.41 1.27 2.37 2.28 2.82 0 .15-.04.3-.04.41 0 .78.22 1.48.71 2.08 1.41 1.78 4.4 2 4.51 2h.19l.14-.11c1.16-.85 1.72-1.82 1.72-2.82v-.22c-.19-2.23-2.95-3.86-3.5-4.2-.23-1.59-3.06-2.52-3.4-2.63-2.57-2.08-3.39-2.27-3.88-1.82Zm5 9.24c-.34-.45-.48-.93-.48-1.48 0-.19 0-.41.07-.64l.07-.4-.37-.15c-.07-.04-1.97-.74-1.97-2.12 0-.15.03-.33.07-.52l.08-.22-.15-.19c-.71-1.04-1.27-2.07-1.42-2.59.37.18 1.08.63 2.5 1.81 1.3.41 2.94 1.23 2.94 1.97v.08l-.03.33.29.15c.86.44 3.1 1.93 3.21 3.52v.15c0 .67-.41 1.3-1.23 1.93-.48-.07-2.61-.37-3.58-1.63Z"/><path fill="#FFE91B" d="M7490.42 4989.01s-14.74-.7-13.32 12.36c0 0 4.34 13.42 18.26 2.08-.04 0 8.5-9.08-4.94-14.44Z"/><path d="M7479.69 4992.7c-2.12 2.11-2.98 5-2.61 8.57.08.32 1.79 5.15 6.44 6.43 3.56.97 7.8-.42 12.63-4.13.19-.21 3.65-3.75 2.68-7.78-.67-2.78-3.27-5.04-7.73-6.74l-.08-.04h-.07c-.26-.03-7.25-.27-11.26 3.69Zm4.12 14.1c-4.16-1.15-5.76-5.7-5.76-5.73-.37-3.23.41-5.87 2.34-7.78 3.57-3.55 9.93-3.44 10.45-3.41 4.09 1.57 6.47 3.62 7.06 6.05.11.41.15.83.15 1.25 0 3.05-2.53 5.66-2.53 5.66-4.5 3.51-8.44 4.86-11.71 3.96Z"/><path fill="#FFE91B" d="M7604.51 4986.25s8.55-21.7-15.35-14.95c0 .04-13.51 28.74 15.35 14.95Z"/><path d="m7588.55 4970.33-.22.07-.12.18c-.25.53-6.19 13.35-1.26 17.9 2.86 2.62 8.68 1.84 17.29-2.28l.15-.07.07-.17c.15-.4 3.82-9.84-.74-14.53-2.67-2.8-7.79-3.2-15.17-1.1Zm14.54 1.74c1.52 1.56 1.97 3.76 1.97 5.97 0 3.55-1.23 6.92-1.41 7.42-8.13 3.87-13.51 4.65-16.03 2.34-1.22-1.13-1.67-2.87-1.67-4.86 0-4.8 2.6-10.76 3.04-11.76 6.9-1.92 11.65-1.63 14.1.89Z"/><path fill="#FFE91B" d="M7588.72 4986.44s9.89-20.47-11.52-18.27c0 0-20.65 7.06 3.59 19.72 0 0 6.34.71 7.93-1.45Z"/><path d="M7577.25 4967.17c-.44.15-7.82 2.85-8.23 8.07-.33 3.98 3.54 8.21 11.48 12.59.81.14 6.61.74 8.24-1.6l.03-.04v-.04c.19-.42 4.62-10.16.45-15.64-2.14-2.84-6.17-3.98-11.97-3.34Zm3.55 19.77c-7.42-4.09-11.12-8.04-10.82-11.63.37-4.62 7.42-7.21 7.5-7.25 5.31-.53 9 .43 10.96 2.99 1.18 1.53 1.59 3.52 1.59 5.47 0 4.37-1.96 8.82-2.11 9.17-1.14 1.57-5.5 1.42-7.12 1.25Z"/><path fill="#FFE91B" d="M7600.89 4987.28s9.11-2.2 9.11 5.81c0 0-.78 10.91-12.92 10.91 0 0-18.22-18.18 3.81-16.72Z"/><path d="M7601.33 4986.27c-6-.39-9.71.67-10.89 3.17-2.49 5.09 6.41 14.06 6.78 14.42l.15.14h.22c12.48 0 13.41-11.29 13.41-11.39 0-2.39-.74-4.17-2.26-5.27-2.82-2.07-7.04-1.14-7.41-1.07Zm.15.92c.04 0 4.19-.96 6.63.89 1.22.93 1.85 2.46 1.85 4.53-.03.39-.89 10.36-12.22 10.46-.82-.85-6.82-7.15-6.82-11.57 0-.6.11-1.14.33-1.64 1.04-2.1 4.41-2.99 10.01-2.63h.07l.15-.04Z"/><path fill="#FFE91B" d="M7586 4991.13s-1.88-12.13-13.18-12.13c0 0-14.15-.29-6.6 14.23 0 0 6.6 9.7 15.73 3.95-.04 0 3.11-2.14 4.05-6.05Z"/><path d="M7565 4982.4c-1.65 2.53-1.26 6.17 1.18 10.84.08.14 6.72 9.63 15.69 3.95.15-.1 3.2-2.18 4.09-6.06l.04-.07v-.07c0-.1-1.97-11.98-13.07-11.98-.25-.04-5.6-.14-7.93 3.39Zm1.97 10.39c-2.22-4.33-2.65-7.69-1.18-9.9 2.01-3.08 7.04-3.01 7.11-3.01 10.08 0 11.99 10.25 12.13 11.11-.86 3.5-3.66 5.44-3.7 5.47-8.18 5.16-14.1-3.32-14.36-3.67Z"/><path fill="#FFE91B" d="M7585.52 4992s5.39-.36 4.69-4.3c0 0 2.9-1.1 2.17-3.21 0 0 4.65-6.79-1.8-1.43 0 0-3.3.99-3.08 2.45-.04 0-6.3 3.24-1.98 6.49Z"/><path d="M7589.77 4982.17c-.18 0-3.02.91-3.24 2.52-.59.33-3.35 1.94-3.53 4.17v.22c0 1.02.59 1.97 1.73 2.81l.15.11h.18c.15 0 3.13-.22 4.53-2.01.44-.59.69-1.28.69-2.08 0-.15-.03-.3-.03-.44.99-.44 2.24-1.43 2.24-2.82 0-.18-.03-.36-.11-.55 1.29-1.9 1.62-2.85 1.62-3.36 0-.33-.15-.48-.22-.55-.48-.44-1.29-.25-4.01 1.98Zm-5.78 6.91v-.15c.15-1.57 2.36-3.07 3.2-3.51l.3-.15-.04-.33v-.07c0-.69 1.62-1.53 2.8-1.86 1.58-1.28 2.32-1.72 2.68-1.9-.14.51-.7 1.57-1.43 2.59l-.15.22.07.22c.08.18.08.37.08.51 0 1.35-1.88 2.09-1.95 2.12l-.37.15.07.4c.04.22.08.44.08.62 0 .59-.15 1.06-.48 1.46-.99 1.28-3.09 1.58-3.61 1.61-.84-.62-1.25-1.28-1.25-1.93Z"/><path fill="#FFE91B" d="M7584.57 4990.01s14.73-.69 13.34 12.36c0 0-4.33 13.44-18.25 2.05 0 0-8.51-9.08 4.91-14.41Z"/><path d="M7585.03 4990.02h-.07l-.07.03c-4.45 1.77-7.06 4.16-7.72 7.08-.96 4.23 2.46 7.99 2.61 8.14 4.85 3.97 9.11 5.45 12.68 4.4 4.67-1.33 6.36-6.43 6.43-6.65.44-3.86-.44-6.9-2.57-9.14-4.01-4.15-10.99-3.9-11.29-3.86Zm10.59 4.51c1.91 1.99 2.68 4.81 2.31 8.28 0-.04-1.58 4.73-5.77 5.92-3.23.94-7.2-.46-11.76-4.19 0 0-2.5-2.71-2.5-5.92 0-.44.04-.87.15-1.31.59-2.6 2.98-4.73 7.09-6.39.55 0 6.91-.11 10.48 3.61Z"/><path fill="#908520" d="M7616 5091.5c0 43.9-36.95 79.5-82.5 79.5s-82.5-35.6-82.5-79.5 36.91-79.5 82.5-79.5c45.55.04 82.5 35.6 82.5 79.5Z"/><path d="M7451 5091c0 44.1 37.25 80 83 80s83-35.9 83-80-37.21-80-83-80c-45.79.04-83 35.9-83 80Zm.96 0c0-43.6 36.81-79.07 82.04-79.07 45.23 0 82 35.47 82 79.07 0 43.6-36.8 79.04-82 79.04-45.23.03-82.04-35.44-82.04-79.04Z"/><path fill="#F7ED9D" d="M7603 5091c0 36.44-30.68 66-68.5 66-37.85 0-68.5-29.53-68.5-66 0-36.44 30.65-66 68.5-66s68.5 29.56 68.5 66Z"/><path fill="#005BAC" d="M7571 5089.98c0 19.87-16.8 36.02-37.5 36.02-20.74 0-37.5-16.12-37.5-36.02 0-19.86 16.8-35.98 37.5-35.98s37.5 16.12 37.5 35.98Z"/><path fill="#B42624" d="M7501.37 5070.33s-7.24 22.29 11.58 27.18c0 0 18.11 4.18 21.71-11.82 0 0 18.81-26.46 36.18 8.35 0 0 4.71-35.46-37.07-40.03 0 0-22.27-1.07-32.4 16.32Z"/><path fill="#FFE91B" d="M7421 5178.39s28.97 32 89.86 9.73c0 0 37.85-18.83-6.13-30.59 0 0-52.92-21.7-83.73 20.86Z"/><path d="m7420.22 5178.61-.22.28.26.29c.3.32 30.15 32.18 91.16 9.93.74-.35 16.53-8.29 15.54-17.37-.63-5.77-7.96-10.58-21.76-14.28-.48-.18-54.09-21.43-84.98 21.15Zm84.65-20.26c13.47 3.6 20.53 8.12 21.12 13.49.93 8.44-14.8 16.38-14.98 16.45-57.31 20.9-86.72-6.37-89.79-9.4 30.52-41.58 83.13-20.75 83.65-20.54Z"/><path d="M7454 5154.79c13.46 7.91 16.01 23.09 16.01 23.24-.87 4.51-14.45 17.18-14.56 17.29l.68.68c.57-.54 13.92-13 14.87-17.97 0-.33-2.62-15.9-16.47-24.03l-.53.79Z"/><path d="M7463 5152.85c15.4 6.53 19.99 24.26 20.03 24.44-.15 3.67-11.51 15.01-15.84 19.04l.67.67c.63-.6 15.95-14.87 16.14-19.82-.07-.31-4.75-18.47-20.59-25.18l-.41.85Z"/><path d="M7482 5152.78c11.84 6.42 14.99 23.52 15.03 23.7-.9 5.82-14.24 17.7-14.39 17.85l.67.67c.56-.5 13.72-12.24 14.69-18.52-.11-.85-3.22-17.85-15.51-24.48l-.49.78Z"/><path fill="#F9D600" d="M7498 5193s11.78-10.9 12-17.21c0 0-.91-15.52-11.45-20.79"/><path d="M7498.67 5155.81c10.32 4.99 11.33 19.85 11.36 19.99-.22 5.91-11.92 16.42-12.03 16.53l.67.67c.48-.42 12.11-10.9 12.33-17.2-.04-.67-1.08-15.6-11.89-20.8l-.44.81Z"/><path fill="#FFE91B" d="M7650 5179.98s-29.25 32.74-90.71 9.96c0 0-38.21-19.26 6.18-31.28 0 0 53.47-22.2 84.53 21.32Z"/><path d="M7565.55 5158.49c-13.63 3.67-20.89 8.47-21.51 14.24-.95 9.08 14.69 17.02 15.35 17.38 60.46 22.25 90.06-9.58 90.35-9.9l.26-.29-.22-.28c-30.63-42.62-83.72-21.37-84.23-21.15Zm-5.75 30.76c-.11-.07-15.68-7.97-14.81-16.41.59-5.38 7.59-9.9 20.85-13.46.59-.25 52.69-21.08 82.88 20.51-3.01 3.02-32.13 30.26-88.92 9.36Z"/><path d="M7600 5179.31c.86 4.97 13.46 17.17 14 17.69l.64-.66c-.14-.11-12.89-12.48-13.71-17.06.04 0 2.43-14.82 15.07-22.51l-.5-.77c-13.03 7.93-15.5 23.14-15.5 23.31Z"/><path d="M7587 5178.09c.14 5.05 14.79 19.31 15.39 19.91l.65-.67c-4.18-4.06-15-15.35-15.15-19.17.04-.07 4.4-17.78 19.11-24.31l-.39-.85c-15.11 6.74-19.57 24.92-19.61 25.09Z"/><path d="M7573 5178.35c.94 6.42 14.09 18.15 14.69 18.65l.67-.67c-.15-.11-13.45-11.99-14.39-17.98.04-.03 3.15-17.12 15.03-23.53l-.49-.82c-12.29 6.66-15.4 23.61-15.51 24.35ZM7560 5177.28c.22 6.54 11.85 17.25 12.33 17.72l.67-.69c-.11-.11-11.81-10.89-12.03-16.99 0-.11 1.04-15.36 11.36-20.48l-.44-.84c-10.85 5.34-11.89 20.63-11.89 21.28Z"/></g></svg>