<?xml version="1.0" standalone="no"?>
<!DOCTYPE svg PUBLIC "-//W3C//DTD SVG 20010904//EN"
 "http://www.w3.org/TR/2001/REC-SVG-20010904/DTD/svg10.dtd">
<svg version="1.0" xmlns="http://www.w3.org/2000/svg"
 width="1219.000000pt" height="1280.000000pt" viewBox="0 0 1219.000000 1280.000000"
 preserveAspectRatio="xMidYMid meet">
<metadata>
Created by potrace 1.15, written by Peter Selinger 2001-2017
</metadata>
<g transform="translate(0.000000,1280.000000) scale(0.100000,-0.100000)"
fill="red" stroke="none">
<path d="M4540 12789 c-469 -52 -864 -207 -1235 -486 -570 -428 -920 -1090
-961 -1819 l-7 -121 -126 -12 c-737 -70 -1387 -458 -1803 -1076 -342 -511
-478 -1152 -372 -1762 87 -505 323 -956 691 -1320 158 -156 248 -213 418 -266
l70 -22 2043 -3 2042 -2 -2 -673 -3 -672 -913 -5 -912 -5 1312 -2272 c722
-1250 1313 -2271 1314 -2270 1 1 592 1023 1313 2272 l1311 2270 -912 5 -913 5
-3 673 -2 672 1982 0 c1171 0 2016 4 2065 10 173 19 307 84 461 221 283 250
537 641 661 1014 95 283 126 477 126 780 0 221 -8 306 -46 493 -164 809 -750
1497 -1524 1787 -259 97 -494 143 -780 154 l-180 6 -6 135 c-19 386 -138 776
-342 1115 -372 620 -996 1040 -1720 1157 -162 26 -535 31 -682 10 -300 -45
-560 -127 -807 -253 l-100 -52 -123 61 c-250 125 -474 196 -745 237 -126 19
-471 28 -590 14z"/>
</g>
</svg>
